<svg width="920" height="220" viewBox="0 0 920 220" xmlns="http://www.w3.org/2000/svg">
  <!-- Background -->
  <rect width="920" height="220" rx="20" fill="#0b1018"/>
  <rect x="2" y="2" width="916" height="216" rx="18" fill="none" stroke="#1e293b" stroke-width="2"/>

  <!-- Icon (shield + magnifying glass + detected pattern) -->
  <g transform="translate(40,28) scale(0.64)">
    <path d="M128,44 L184,69 L184,128 C184,172 159,198 128,213
             C97,198 72,172 72,128 L72,69 Z"
          fill="none" stroke="#cbd5e1" stroke-width="9" stroke-linejoin="round" stroke-linecap="round"/>
    <circle cx="118" cy="118" r="27" fill="none" stroke="#cbd5e1" stroke-width="9"/>
    <line x1="137" y1="137" x2="156" y2="156" stroke="#cbd5e1" stroke-width="11" stroke-linecap="round"/>
    <line x1="108" y1="109" x2="128" y2="109" stroke="#64748b" stroke-width="3"/>
    <line x1="108" y1="109" x2="118" y2="129" stroke="#64748b" stroke-width="3"/>
    <line x1="128" y1="109" x2="118" y2="129" stroke="#64748b" stroke-width="3"/>
    <circle cx="108" cy="109" r="4.6" fill="#cbd5e1"/>
    <circle cx="128" cy="109" r="4.6" fill="#cbd5e1"/>
    <circle cx="118" cy="129" r="5.6" fill="#b45309"/>
  </g>

  <!-- Wordmark -->
  <text x="218" y="110" font-family="'Courier New', monospace" font-size="34" letter-spacing="3"
        fill="#f1f5f9">CONSPIRACY DETECTION ENGINE</text>
  <text x="220" y="142" font-family="'Courier New', monospace" font-size="14" letter-spacing="2.5"
        fill="#64748b">PATTERN ANALYSIS · THREAT MAPPING · PROTECTION STRATEGY</text>

  <!-- accent rule -->
  <line x1="220" y1="160" x2="700" y2="160" stroke="#1e293b" stroke-width="2"/>
</svg>
